<?xml version="1.0" standalone="no"?>
<!DOCTYPE svg PUBLIC "-//W3C//DTD SVG 20010904//EN"
 "http://www.w3.org/TR/2001/REC-SVG-20010904/DTD/svg10.dtd">
<svg version="1.0" xmlns="http://www.w3.org/2000/svg"
 width="577.000000pt" height="433.000000pt" viewBox="0 0 577.000000 433.000000"
 preserveAspectRatio="xMidYMid meet">

<g transform="translate(0.000000,433.000000) scale(0.100000,-0.100000)"
fill="#000000" stroke="none">
<path d="M3053 2715 c-200 -92 -137 -354 90 -372 104 -9 182 28 232 108 29 45
34 123 11 167 -56 107 -213 153 -333 97z"/>
<path d="M2300 2615 c0 -77 2 -85 19 -85 13 0 18 5 15 18 -6 23 10 45 33 47
28 2 27 20 -2 23 -19 3 -25 9 -25 28 0 20 5 24 30 24 20 0 30 5 30 15 0 11
-12 15 -50 15 l-50 0 0 -85z"/>
<path d="M2440 2615 l0 -85 50 0 c55 0 69 17 18 22 -25 2 -34 8 -36 26 -3 19
1 22 32 22 25 0 36 4 36 15 0 10 -11 15 -35 15 -28 0 -35 4 -35 20 0 16 7 20
35 20 24 0 35 5 35 15 0 11 -12 15 -50 15 l-50 0 0 -85z"/>
<path d="M2580 2615 l0 -85 50 0 c55 0 69 17 18 22 -25 2 -34 8 -36 26 -3 19
1 22 27 22 21 0 31 5 31 15 0 10 -10 15 -30 15 -23 0 -30 4 -30 20 0 16 7 20
35 20 24 0 35 5 35 15 0 11 -12 15 -50 15 l-50 0 0 -85z"/>
<path d="M2720 2615 l0 -85 50 0 c55 0 69 17 18 22 l-33 3 -3 73 c-2 55 -6 72
-17 72 -12 0 -15 -17 -15 -85z"/>
<path d="M3627 2350 c-43 -43 -77 -86 -77 -94 0 -16 66 -66 86 -66 6 0 21 11
34 25 26 28 42 31 59 11 9 -10 -1 -23 -46 -62 -32 -27 -77 -66 -100 -87 -27
-25 -47 -36 -55 -31 -7 4 -83 54 -168 109 -85 56 -173 108 -195 115 -50 17
-163 17 -207 0 -18 -7 -61 -25 -96 -41 -35 -16 -65 -29 -67 -29 -2 0 -28 -11
-57 -24 -29 -13 -83 -37 -120 -54 -37 -17 -71 -40 -78 -52 -9 -17 -10 -66 -5
-186 7 -162 7 -164 -14 -164 -17 0 -20 4 -15 30 9 43 -9 60 -67 60 -36 0 -51
-5 -58 -17 -14 -27 -32 -196 -22 -206 5 -5 33 -10 62 -11 53 -1 54 0 65 34 15
47 44 51 80 11 43 -49 116 -54 161 -11 12 11 31 20 43 20 17 0 20 -6 20 -45
l0 -46 63 3 62 3 14 97 c8 53 11 103 8 112 -5 12 -21 16 -66 16 -61 0 -71 -7
-71 -51 0 -22 -38 -27 -44 -6 -3 6 -7 69 -10 139 l-6 126 55 21 c31 12 58 21
60 21 3 0 2 -47 -2 -105 l-6 -105 37 0 c22 0 50 -9 67 -21 26 -18 29 -26 29
-77 0 -31 -4 -84 -10 -117 -12 -76 -33 -95 -104 -95 -39 0 -54 -4 -63 -18 -40
-65 -193 -249 -227 -274 -42 -30 -107 -76 -205 -145 -90 -64 -111 -87 -111
-126 0 -43 30 -82 74 -97 61 -20 90 -6 251 114 33 25 85 63 115 85 70 50 97
78 215 231 54 69 101 124 105 123 4 -1 34 -17 66 -36 33 -19 91 -53 131 -76
l72 -41 -14 -43 c-85 -266 -91 -312 -51 -352 68 -68 180 -31 207 68 6 23 17
60 24 82 56 170 85 293 76 317 -13 33 -49 60 -193 143 -94 53 -118 71 -118 88
0 23 17 291 24 392 4 43 9 59 18 57 7 -2 60 -34 118 -72 142 -92 151 -96 197
-82 21 7 54 26 73 43 19 17 57 50 84 73 27 22 76 66 110 97 l61 57 27 -20 c33
-23 34 -29 8 -53 -11 -10 -20 -24 -20 -31 0 -17 58 -64 80 -64 17 0 144 122
164 158 7 12 1 23 -25 44 -41 35 -65 35 -100 2 l-26 -25 -119 82 c-66 45 -123
86 -128 90 -6 6 -1 21 12 39 12 16 22 33 22 38 0 10 -74 62 -88 62 -5 0 -43
-36 -85 -80z"/>
</g>
</svg>
